/* XPM */
static char *_e9cd366c98b40eabec25dd6b24672dewfQyEqwka3SCHSrf[] = {
/* columns rows colors chars-per-pixel */
"96 96 4 1 ",
"  c #686F16",
". c #72751B",
"X c #787B21",
"o c #7F8124",
/* pixels */
"................................................................................................",
"................................................................................................",
"................................................................................................",
"................................................................................................",
"................................................................................................",
"................................................................................................",
"................................................................................................",
"................................................................................................",
"................................................................................................",
"................................................................................................",
"................................................................................................",
"................................................................................................",
".........XXXXXX.................................................................................",
".........XXXXXX.................................................................................",
".........XXXXXX.................................................................................",
".........   oooooo..............................................................................",
".........   oooooo..............................................................................",
".........   oooooo..............................................................................",
"............oooXXXXXX.........XXX...............................................................",
"............oooXXXXXX.........XXX...............................................................",
"............oooXXXXXX.........XXX...............................................................",
"............   XXXXXX...oooXXX..................................................................",
"............   XXXXXX...oooXXX..................................................................",
"............   XXXXXX...oooXXX..................................................................",
"............   XXXXXXXXXoooooo....................................ooo...........................",
"............   XXXXXXXXXoooooo....................................ooo...........................",
"............   XXXXXXXXXoooooo....................................ooo...........................",
"...............      XXXXXX   .................................XXXXXX......ooooooXXX............",
"...............      XXXXXX   .................................XXXXXX......ooooooXXX............",
"...............      XXXXXX   .................................XXXXXX......ooooooXXX............",
".....................      ...........................XXX......XXX   ...XXXXXXooo...............",
".....................      ...........................XXX......XXX   ...XXXXXXooo...............",
".....................      ...........................XXX......XXX   ...XXXXXXooo...............",
".........................................................oooXXX   ......XXXXXX   ...............",
".........................................................oooXXX   ......XXXXXX   ...............",
".........................................................oooXXX   ......XXXXXX   ...............",
".........................................................XXXXXX......XXXXXX   XXXooo............",
".........................................................XXXXXX......XXXXXX   XXXooo............",
".........................................................XXXXXX......XXXXXX   XXXooo............",
"............................................................   ......XXX   XXXXXX   ............",
"............................................................   ......XXX   XXXXXX   ............",
"............................................................   ......XXX   XXXXXX   ............",
".....................................................................      XXX   ...............",
".....................................................................      XXX   ...............",
".....................................................................      XXX   ...............",
"................................................................................................",
"................................................................................................",
"................................................................................................",
"..........................................ooooooXXX.............................................",
"..........................................ooooooXXX.............................................",
"..........................................ooooooXXX.............................................",
".............................................oooXXXXXX..........................................",
".............................................oooXXXXXX..........................................",
".............................................oooXXXXXX..........................................",
".............................................   XXXXXX..........................................",
".............................................   XXXXXX..........................................",
".............................................   XXXXXX..........................................",
"................................................      ..........................................",
"................................................      ..........................................",
"................................................      ..........................................",
"................................................................................................",
"................................................................................................",
"................................................................................................",
"................................................................................................",
"................................................................................................",
"................................................................................................",
"................................................................................................",
"................................................................................................",
"................................................................................................",
".........oooooo............XXXXXX...............................................................",
".........oooooo............XXXXXX...............................................................",
".........oooooo............XXXXXX...............................................................",
"............oooXXX......XXXXXX.........................................................oooooo...",
"............oooXXX......XXXXXX.........................................................oooooo...",
"............oooXXX......XXXXXX.........................................................oooooo...",
"............   XXXXXX...XXXXXX..........................................XXX......XXXXXXooo......",
"............   XXXXXX...XXXXXX..........................................XXX......XXXXXXooo......",
"............   XXXXXX...XXXXXX..........................................XXX......XXXXXXooo......",
"............   XXXXXX...      ..........................................oooooo   XXXXXX   ......",
"............   XXXXXX...      ..........................................oooooo   XXXXXX   ......",
"............   XXXXXX...      ..........................................oooooo   XXXXXX   ......",
"...............      ...................................................oooXXXXXX      .........",
"...............      ...................................................oooXXXXXX      .........",
"...............      ...................................................oooXXXXXX      .........",
"........................................................................   XXXXXX...............",
"........................................................................   XXXXXX...............",
"........................................................................   XXXXXX...............",
"................................................................................................",
"................................................................................................",
"................................................................................................",
"................................................................................................",
"................................................................................................",
"................................................................................................",
"................................................................................................",
"................................................................................................",
"................................................................................................"
};
