/* XPM */
static char *e570345f65d641d6e63ec3faf25fbbe6E1hFbi4Tja47bHXK[] = {
/* columns rows colors chars-per-pixel */
"96 96 18 1 ",
"  c None",
". c #4F2913",
"X c #573621",
"o c #583A27",
"O c #583B28",
"+ c #5B3C29",
"@ c #624835",
"# c #644A38",
"$ c #655444",
"% c #6B6256",
"& c #736D62",
"* c #746F64",
"= c #747064",
"- c #757064",
"; c #868579",
": c #929089",
"> c #939189",
", c #94928B",
/* pixels */
"                                                                        ...;;;;;;;;;;;;;;;,,,+++",
"                                                                        ...;;;;;;;;;;;;;;;,,,+++",
"                                                                        ...;;;;;;;;;;;;;;;,,,+++",
"                                                                        ...;;;;;;;;;;;;;;;,,,+++",
"                                                                        ...;;;;;;;;;;;;;;;,,,+++",
"                                                                        ...;;;;;;;;;;;;;;;,,,+++",
"                                                                        ...;;;;;;;;;;;;;;;,,,+++",
"                                                                        ...;;;;;;;;;;;;;;;,,,+++",
"                                                                        ...;;;;;;;;;;;;;;;,,,+++",
"                                                                        ...;;;;;;;;;;;;;;;,,,+++",
"                                                                        ...;;;;;;;;;;;;;;;,,,+++",
"                                                                        ...;;;;;;;;;;;;;;;,,,+++",
"                                                                        ...;;;;;;;;;;;;;;;,,,+++",
"                                                                        ...;;;;;;;;;;;;;;;,,,+++",
"                                                                        ...;;;;;;;;;;;;;;;,,,+++",
"                                                                        ...;;;;;;;;;;;;;;;,,,+++",
"                                                                        ...;;;;;;;;;;;;;;;,,,+++",
"                                                                        ...;;;;;;;;;;;;;;;,,,+++",
"                                                                        ...;;;;;;;;;;;;;;;,,,+++",
"                                                                        ...;;;;;;;;;;;;;;;,,,+++",
"                                                                        ...;;;;;;;;;;;;;;;,,,+++",
"                                                                        ...;;;;;;;;;;;;>>>***+++",
"                                                                        ...;;;;;;;;;;;;>>>***+++",
"                                                                        ...;;;;;;;;;;;;>>>***+++",
"                                                                        ...;;;;;;;;;;;;>>>***+++",
"                                                                        ...;;;;;;;;;;;;>>>***+++",
"                                                                        ...;;;;;;;;;;;;>>>***+++",
"                                                                        ...,,,,,,,,,,,,&&&---+++",
"                                                                        ...,,,,,,,,,,,,&&&---+++",
"                                                                        ...,,,,,,,,,,,,&&&---+++",
"                                                                        ......oooOOO%%%%%%---+++",
"                                                                        ......oooOOO%%%%%%---+++",
"                                                                        ......oooOOO%%%%%%---+++",
"                                                                        ...;;;;;;;;;XXX%%%%%%+++",
"                                                                        ...;;;;;;;;;XXX%%%%%%+++",
"                                                                        ...;;;;;;;;;XXX%%%%%%+++",
"                                                                        ...;;;;;;;;;;;;@@@###+++",
"                                                                        ...;;;;;;;;;;;;@@@###+++",
"                                                                        ...;;;;;;;;;;;;@@@###+++",
"                                                                        ...;;;;;;;;;;;;;;;,,,+++",
"                                                                        ...;;;;;;;;;;;;;;;,,,+++",
"                                                                        ...;;;;;;;;;;;;;;;,,,+++",
"                                                                        ...;;;;;;;;;;;;;;;,,,+++",
"                                                                        ...;;;;;;;;;;;;;;;,,,+++",
"                                                                        ...;;;;;;;;;;;;;;;,,,+++",
"                                                                        ...;;;;;;;;;;;;;;;,,,+++",
"                                                                        ...;;;;;;;;;;;;;;;,,,+++",
"                                                                        ...;;;;;;;;;;;;;;;,,,+++",
"                                                                        ...;;;;;;;;;;;;;;;,,,+++",
"                                                                        ...;;;;;;;;;;;;;;;,,,+++",
"                                                                        ...;;;;;;;;;;;;;;;,,,+++",
"                                                                        ...;;;;;;;;;;;;;;;,,,+++",
"                                                                        ...;;;;;;;;;;;;;;;,,,+++",
"                                                                        ...;;;;;;;;;;;;;;;,,,+++",
"                                                                        ...;;;;;;;;;;;;;;;,,,+++",
"                                                                        ...;;;;;;;;;;;;;;;,,,+++",
"                                                                        ...;;;;;;;;;;;;;;;,,,+++",
"                                                                        ...;;;;;;;;;;;;;;;,,,+++",
"                                                                        ...;;;;;;;;;;;;;;;,,,+++",
"                                                                        ...;;;;;;;;;;;;;;;,,,+++",
"                                                                        ...;;;;;;;;;;;;;;;,,,+++",
"                                                                        ...;;;;;;;;;;;;;;;,,,+++",
"                                                                        ...;;;;;;;;;;;;;;;,,,+++",
"                                                                        ...;;;;;;;;;;;;;;;,,,+++",
"                                                                        ...;;;;;;;;;;;;;;;,,,+++",
"                                                                        ...;;;;;;;;;;;;;;;,,,+++",
"                                                                        ...;;;;;;;;;;;;;;;,,,+++",
"                                                                        ...;;;;;;;;;;;;;;;,,,+++",
"                                                                        ...;;;;;;;;;;;;;;;,,,+++",
"                                                                        ...;;;;;;;;;;;;;;;,,,+++",
"                                                                        ...;;;;;;;;;;;;;;;,,,+++",
"                                                                        ...;;;;;;;;;;;;;;;,,,+++",
"                                                                        ...;;;;;;;;;;;;;;;,,,+++",
"                                                                        ...;;;;;;;;;;;;;;;,,,+++",
"                                                                        ...;;;;;;;;;;;;;;;,,,+++",
"                                                                        ...,,,,,,,,,,,,,,,,,,+++",
"                                                                        ...,,,,,,,,,,,,,,,,,,+++",
"                                                                        ...,,,,,,,,,,,,,,,,,,+++",
"                                                                        ......$$$$$$$$$$$$...+++",
"                                                                        ......$$$$$$$$$$$$...+++",
"                                                                        ......$$$$$$$$$$$$...+++",
"                                                                        ...;;;;;;;;;;;;;;;,,,+++",
"                                                                        ...;;;;;;;;;;;;;;;,,,+++",
"                                                                        ...;;;;;;;;;;;;;;;,,,+++",
"                                                                        ...;;;;;;;;;;;;;;;,,,+++",
"                                                                        ...;;;;;;;;;;;;;;;,,,+++",
"                                                                        ...;;;;;;;;;;;;;;;,,,+++",
"                                                                        ...;;;;;;;;;;;;;;;,,,+++",
"                                                                        ...;;;;;;;;;;;;;;;,,,+++",
"                                                                        ...;;;;;;;;;;;;;;;,,,+++",
"                                                                        ...;;;;;;;;;;;;;;;,,,+++",
"                                                                        ...;;;;;;;;;;;;;;;,,,+++",
"                                                                        ...;;;;;;;;;;;;;;;,,,+++",
"                                                                        ...;;;;;;;;;;;;;;;,,,+++",
"                                                                        ...;;;;;;;;;;;;;;;,,,+++",
"                                                                        ...;;;;;;;;;;;;;;;,,,+++"
};
