/* XPM */
static char *_74de912d2d94e9faa3bf9905485a3c6PAy7MsTlrROkP3uT[] = {
/* columns rows colors chars-per-pixel */
"96 96 88 1 ",
"  c None",
". c #4E2812",
"X c #4F2913",
"o c #53321E",
"O c #543624",
"+ c #543725",
"@ c #553725",
"# c #5A3B27",
"$ c #563B2B",
"% c #5B3C29",
"& c #5B4231",
"* c #584132",
"= c #604734",
"- c #634D3C",
"; c #5D5248",
": c #5D5348",
"> c #5E5348",
", c #5E5349",
"< c #5F5349",
"1 c #5D5449",
"2 c #5E5449",
"3 c #5E544A",
"4 c #5F544A",
"5 c #5E554A",
"6 c #5F554A",
"7 c #675544",
"8 c #675545",
"9 c #61574A",
"0 c #61574B",
"q c #62574B",
"w c #61584B",
"e c #62584B",
"r c #62584C",
"t c #63584C",
"y c #63594C",
"u c #63594D",
"i c #645A4D",
"p c #655C50",
"a c #655E55",
"s c #655F55",
"d c #665F56",
"f c #665F57",
"g c #666057",
"h c #676057",
"j c #676157",
"k c #666058",
"l c #676058",
"z c #676158",
"x c #676159",
"c c #676258",
"v c #676259",
"b c #686158",
"n c #686159",
"m c #686259",
"M c #686359",
"N c #68625A",
"B c #69625A",
"V c #68635A",
"C c #69635A",
"Z c #69635B",
"A c #6A635B",
"S c #69645A",
"D c #69645B",
"F c #6A645B",
"G c #6A655B",
"H c #6B645C",
"J c #6A655C",
"K c #6B655D",
"L c #6A665C",
"P c #6B665C",
"I c #6B665D",
"U c #6B675D",
"Y c #6C665E",
"T c #6C675E",
"R c #6C675F",
"E c #6C685E",
"W c #6D685F",
"Q c #706C63",
"! c #726F67",
"~ c #76736B",
"^ c #79766E",
"/ c #7A776F",
"( c #7E7B73",
") c #86837B",
"_ c #868579",
"` c #8B8A7F",
"' c #94928B",
"] c #99978F",
/* pixels */
"##############################   #################################XXXXXXXXX_______________'''%%%",
"##############################   #################################XXXXXXXXX_______________'''%%%",
"##############################   #################################XXXXXXXXX_______________'''%%%",
"___________________________```===```______________________________________________________'''%%%",
"___________________________```===```______________________________________________________'''%%%",
"___________________________```===```______________________________________________________'''%%%",
"___________________________```---```______________________________________________________]]]%%%",
"___________________________```---```______________________________________________________]]]%%%",
"___________________________```---```______________________________________________________]]]%%%",
"___________________________```777```______________________________________________________]]]%%%",
"___________________________```777```______________________________________________________]]]%%%",
"___________________________```777```______________________________________________________]]]%%%",
"''''''''''''''''''''']]]]]]]]]777]]]]]]]]]'''''''''''''''''''''''''''''''''''']]]]]]]]]]]])))XXX",
"''''''''''''''''''''']]]]]]]]]777]]]]]]]]]'''''''''''''''''''''''''''''''''''']]]]]]]]]]]])))XXX",
"''''''''''''''''''''']]]]]]]]]777]]]]]]]]]'''''''''''''''''''''''''''''''''''']]]]]]]]]]]])))XXX",
"WWWWWWWWWWWWWWWWWWWWWWWWWWWWWW&&&WWWWWWWWWTTTWWWWWWWWWWWWTTTTTTTTTTTTTTTUUUUUUUUUUUUUUUUUU)))XXX",
"WWWWWWWWWWWWWWWWWWWWWWWWWWWWWW&&&WWWWWWWWWTTTWWWWWWWWWWWWTTTTTTTTTTTTTTTUUUUUUUUUUUUUUUUUU)))XXX",
"WWWWWWWWWWWWWWWWWWWWWWWWWWWWWW&&&WWWWWWWWWTTTWWWWWWWWWWWWTTTTTTTTTTTTTTTUUUUUUUUUUUUUUUUUU)))XXX",
"WWWWWWWWWWWWWWWWWWWWWWWWWWWWWW&&&TTTTTTTTTTTTTTTTTTTTTUUUUUUUUUUUUUUUUUUUUUUUUUUUUUUUUUUUU)))XXX",
"WWWWWWWWWWWWWWWWWWWWWWWWWWWWWW&&&TTTTTTTTTTTTTTTTTTTTTUUUUUUUUUUUUUUUUUUUUUUUUUUUUUUUUUUUU)))XXX",
"WWWWWWWWWWWWWWTTWWWWWWWWWWWWWW&&&TTTTTTTTTTTTTTTTTTTTTUUUUUUUUUUUUUUUUUUUUUUUUUUUUUUUUUUUU)))XXX",
"TTTTUTTTTTTTTTTTTTTTTTTTUUUUUU&&&TTTTTTTTTTTTTTTTTTUUUUUUUUUUUUUUUUUUUUUUUUUUUUUUFFFFFFFFF(((XXX",
"TTTTTTTTTTTTTTTTTTTTTTTTUUUUUU&&&TTTTTTTTTTTTTTTTTTUUUUUUUUUUUUUUUUUUUUUUUUUUUUUUFFFFFFFFF(((XXX",
"TTTTTTTTTTTTTTTTTTTTTTTTUUUUUU&&&TTTTTTTTTTTTTTTTTTUUUUUUUUUUUUUUUUUUUUUUUUUUUUUUFFFFFFFFV(((XXX",
"UUUUUUUUUUUUUUUUUUUUUUUUUUUUUU&&&UUUUUUUUUUUUUUUUUUUUUUUUUUUUUUUUUUUUUUUUUUFFFFFVFFFFFFFFF(((XXX",
"UUUUUUUUUUUUUUUUUUUUUUUUUUUUUU&&&UUUUUUUUUUUUUUUUUUUUUUUUUUUUUUUUUUUUUUUUUUFFFFFFFFFFFFFFF(((XXX",
"UUUUUUUUUUUUUUUUUUUUUUUUUUUUUU&&&UUUUUUUUUUUUUUUUUUUUUUUUUUUUUUUUUUUUUUUUUUFFFFFFFFFFFFFFF(((XXX",
"UUUUUUUUUUUUUUUUUUUUUUUUUUUUUU&&&UUUUUUUUUUUUUUUUUUUUUUUUUUUUUUFFFFFFVVVFFFVVVVVVVVVVVVVVV(((XXX",
"UUUUUUUUUUUUUUUUUUUUUUUUUUUUUU&&&UUUUUUUUUUUUUUUUUUUUFUUUUUUUUUFFFFFFFFFFVVVVVVVVVVVVVVVVV(((XXX",
"UUUUUUUUUUUUUUUUUUUUUUUUUUUUUU&&&UUUUUUUUUUUUUUUUUUUFUUUUUUUUUUFFFFFFFFFVVVVVVVVVVVVVVVVVV(((XXX",
"UUUUUUUUUUUUUUUUUUUUUUUUUUUUUU&&&UUUUUUUUUUUUUUUUUUUUUUUUUUUUUUFFFFFFVVVVVVVVVVVVVVVVVVVVV^^^XXX",
"UUUUUUUUUUUUUUUUUUUUUUUUUUUUUU&&&UUUUUUUUUUUUUUUUUUUUUUUUUUUUUUFFFFFFVVVVVVVVVVVVVVVVVVVVV^^^XXX",
"UUUUUUUUUUUUUUUUUUUUUUUUUUUUUU&&&UUUUUUUUUUUUUUUUUUUUUUUUUUUUUUFFFFFFVVVVVVVVVVVVVVVVVVVVV^^^XXX",
"UUUFFFFFFFFFFFFFFFFFFFFFUUUUUU&&&UUUUUUUUUUUUUFUFUUUUUUUUUUUFFFVVVVVVVVVVVVVVVVVVVVVVVVVVV^^^XXX",
"UUUFFFFFFFFFFFFFFFFFFFFFUUUUUU&&&UUUUUUUUUUUUUUUUUUUUUUUUUUUFFFVVVVVVVVVVVVVVVVVVVVVVVVVVV^^^XXX",
"UUUFFFFFFFFFFFFFFFFFFFFFUUUUUU&&&UUUUUUUUUUUUUUUUUUUUUUUUUUUFFFVVVVVVVVVVVVVVVVVVVVVVVVVVV^^^XXX",
"FFVVFFFFFFFFFFFFFFFFFFFFUUUVFFoooUUUUUUFUUUUUFFFVVFFFFFFFFFFVVVVVVVVVVVVVVVVVVVVVVVVbbVbVV^^^XXX",
"VVVVFFFFFFFFFFFFFFFFFFFFUUUVFFoooUUUUUUUUUUUUFFFVVFVFFFFFFFFVVVVVVVVVVVVVVVVVVVVVVVVbVbVVV^^^XXX",
"FFVFFFFFFFFFFFFFFFFFFFVVUUUVFFoooUUUUUUUUUUUUFFFVVVVFFFFFFFFVVVVVVVVVVVVVVVVVVVVVVVVVVVVVV^^^XXX",
"FFFFFFFFFVVVFFFFFFFFFFVVVVVVVVoooVVVVVVVFFVVVVVVVVVVVVVVVVVVVVVVVVVVVVVVVVVVVVVVbbbVvvvggg~~~XXX",
"FFFFFFFFFVVVFFFFFFFFFFFFFFFVVVoooVVVFFFFFFVVVVVVVVVVVVVVVVVVVVVVVVVVVVVVVVVVVVVVbbbbvvvggg~~~XXX",
"FFFFFFFFFVVVFFFFFFFFFFFFFFFVVVoooVVVFFFFFFVVAAVVVVVVVVVVVVVVVVVVVVVVVVVVVVVVVVVVVbVbvvvggg~~~XXX",
"VVVVVVVVVVVVVVVVVVVVVVVVVVVVVVoooVVVAAVVVVVVAAVVVVVVVVVVVVVVVVVVVVVVVVVVVVVbVVgggggggggggg~~~XXX",
"VVVVVVVVVVVVVVVVVVVVVVVVVVVVVVoooVVVAVVVVVVVVVVVVVVVVVVVVVVVVVVVVVVVVVVVVVVVVVgggggggggggg~~~XXX",
"VVVVVVVVVVVVVVVVVVVVVVVVVVVVVVoooVVVVVVVVVVVVVVVVVVVVVVVVVVVVVVVVVVVVVVVVVVbVVgggggggggggg~~~XXX",
"VVVVVVVVVVVVVVVVVVVVVVVVVVVVVVoooVVVVVVVVVVVVVVVVVVVVVVVVVVVvvvvvvvvvvvvddddgggggddddddddd!!!XXX",
"VVVVVVVVVVVVVVVVVVVVVVVVVVVVVVoooVVVVVVVVVVVAVVVAAVVVVVVVVVVvvvvvvvvvvvvddddgggggddddddddd!!!XXX",
"VVVVVVVVVVVVVVVVVVVVVVVVVVVVVVoooVVVVVVVVVVVAVVVVAAVVVVVVVVVvvvvvvvvvvvvgdddgggggddddddddd!!!XXX",
"vvvvvvvvvvvvvvvvvvvvvvvvVVVvvvoooVVVVVVVVVVVVVVVVVVVVVVVVVVVvvvvvvvvvvffdggggggggddddddddd!!!XXX",
"vvvvvvvvvvvvvvvvvvvvvvvvVVVvvvoooVVVVVVVVVVVVVVVVVVVVVVVVVVVvvvvvvvvvvfvdggggggggddddddddd!!!XXX",
"vvvvvvvvvvvvvvvvvvvvvvvvVVVvvvoooVVVVVVVVVVVVVVVVVVVVVVVVVVVvvvvvvvvvvvvgggggggggddddddddd!!!XXX",
"vvvvvvvvvvvvvvvvvvvvvvvvvvvvvvooovvvvvvvvvvvvvvvvvvvvvvvvvffffffvvggddddddddddddddddddddddXXX   ",
"vvvvvvvvvvvvvvvvvvvvvvvvvvvvvvooovvvvvvvvvvvvvvvvvvvvvvvvvvvfvvvvvgggdddddddddddddddddddddXXX   ",
"vvvvvvvvvvvvvvvvvvvvvvvvvvvvvvooovvvvvvvvvvvvvvvvvvvvvvvvvvfvvvvvvgggdddddddddddddddddddddXXX   ",
"XXXXXXXXXXXXXXXXXXXXXXXXXXXXXX333XXXXXXXXXXXXXXXXXXXXXXXXXXXXXXXXXXXXXXXXXXXXXXXXXXXXXXXXX      ",
"XXXXXXXXXXXXXXXXXXXXXXXXXXXXXX333XXXXXXXXXXXXXXXXXXXXXXXXXXXXXXXXXXXXXXXXXXXXXXXXXXXXXXXXX      ",
"XXXXXXXXXXXXXXXXXXXXXXXXXXXXXX333XXXXXXXXXXXXXXXXXXXXXXXXXXXXXXXXXXXXXXXXXXXXXXXXXXXXXXXXX      ",
":3:333333333::::33::::33333:333333:3:::333333333333333333333XXX999999eeeeeeeeeeeeeeeeeeXXX      ",
":3::3333333333::3333::3333::::33333333:333333333333333333333XXX999999eeeeeeeeeeeeeeeeeeXXX      ",
"33:::33:3333333:3333::3333::::333333333333333333333333333333XXX999999eeeeeeeeeeeeeeeeeeXXX      ",
"3333::::333:3333:::33333333::::33333333333333333333333333333XXX999eeeeeetttttteeeeeeeeeXXX      ",
"3333::::333:3333::33333333::::::333333:333333333333333333333XXX999eeeeeetttttteeeeeeeeeXXX      ",
":::3::3333::::::::::3333::::::::33:::::333333333333333333333XXX999eeeeeetttttteeeeeeeeeXXX      ",
":::::::333:::::::::::3:::::::::333:::::333333333333333333333XXXeeettttttttttttttteeeeeeXXX      ",
"::333::::33333::::::::3333:::::::::333:333333333333333333333XXXeeettttttttttttttteeeeeeXXX      ",
"::3333::::3333::::33::3333::::3:::3333:333333333333333333333XXXeeettttttttttttttteeeeeeXXX      ",
":333::::::::33::3333::::333:3333::::333333333333333333333333XXXttttttttttttttteeeeeeeeeXXX      ",
":333::::::::33::3333::::33::3333::::333333333333333333333333XXXttttttttttttttteeeeeeeeeXXX      ",
":::::333333:::::33:::3::333333::333::33333333333333333333333XXXttttttttttttttteeeeeeeeeXXX      ",
"::::333333:::::::3::3333333333::3333:3:333333333333333333333XXXttttttttttttttteeeeeeeeeXXX      ",
"33:::3333333::33::::33333333::::33::::3333333333333333333333XXXttttttttttttttteeeeeeeeeXXX      ",
"33:::3333333:::3::::3333:3::::::333:::3333333333333333333333XXXttttttttttttttteeeeeeeeeXXX      ",
"3333333333::3333::::3333::3333333333333333333333333333333333XXX999999eeeeeeeeeeeeeeepppXXX      ",
"33333333:3::33333:::3333::3:33333333333333333333333333333333XXX999999eeeeeeeeeeeeeeepppXXX      ",
"::3:3333::::333333::3333::::::333333333333333333333333333333XXX999999eeeeeeeeeeeeeeepppXXX      ",
"vvvvvvvvvvvvvvvvvvvvvvvvvvvvvvvvvvvvvvvvvvvvvvvvvvvvvvvvvvvvXXX999eeeeeettteeeeeeeeepppXXX      ",
"vvvvvvvvvvvvvvvvvvvvvvvvvvvvvvvvvvvvvvvvvvvvvvvvvvvvvvvvvvvvXXX999eeeeeettteeeeeeeeepppXXX      ",
"vvvvvvvvvvvvvvvvvvvvvvvvvvvvvvvvvvvvvvvvvvvvvvvvvvvvvvvvvvvvXXX999eeeeeettteeeeeeeeepppXXX      ",
"vvvvvvvvvvvvvvvvvvvvvvvvvvvvvvvvvvvvvvvvvvvvvvvvvvvvvvvvvvvvXXXeeetttttttttttttttppppppXXX      ",
"vvvvvvvvvvvvvvvvvvvvvvvvvvvvvvvvvvvvvvvvvvvvvvvvvvvvvvvvvvvvXXXeeetttttttttttttttppppppXXX      ",
"vvvvvvvvvvvvvvvvvvvvvvvvvvvvvvvvvvvvvvvvvvvvvvvvvvvvvvvvvvvvXXXeeetttttttttttttttppppppXXX      ",
"333333333**&&&&++++++&&*&*******&333333333333&&****&&&XXXXXXtttttttttttttttttttttppppppXXX      ",
"333333333*&&&&&++++++&&&&*&&&&**&333333333333&&&**&&&&XXXXXXtttttttttttttttttttttppppppXXX      ",
"333333333**&&&&++++++&&&&&&&&&&*&333333333333&&&**&&&&XXXXXXtttttttttttttttttttttppppppXXX      ",
"TTTTTTTTUUTTTTTTTT+++TTTTTRTTTTTTTTTTTTTTTTTTTTTUUTTTTTTTTTTXXXtttttttttttttttpppppppppXXX      ",
"TTTTTTTTUUTTTTTTTT+++TTTTTRTTTUTTTTTTTTTTTTTTTTTUUTTTTTTTTTTXXXtttttttttttttttpppppppppXXX      ",
"TTTTTTTRTTTTTTTTTT+++TTTTTTTTUUUTTTTTTTTTTTTTTTTTTTTTTTTTTTTXXXtttttttttttttttpppppppppXXX      ",
"vvvvvvvvvvvvvvvvvv$$$vvvvvvvvvvvvvvvvvvvvvvvvvvvvvvvvvvvvQQQXXXtttttttttttttttpppppppppXXX      ",
"vvvvvvvvvvvvvvvvvv$$$vvvvvvvvvvvvvvvvvvvvvvvvvvvvvvvvvvvvQQQXXXtttttttttttttttpppppppppXXX      ",
"vvvvvvvvvvvvvvvvvv$$$vvvvvvvvvvvvvvvvvvvvvvvvvvvvvvvvvvvvQQQXXXtttttttttttttttpppppppppXXX      ",
"vvvvvvvvvvvvvvvvvv&&&vvvvvvvvvvvvvvvvvvvvvvvvvvvvvvvvvvvvQQQXXXiiitttttttttppppppppppppXXX      ",
"vvvvvvvvvvvvvvvvvv&&&vvvvvvvvvvvvvvvvvvvvvvvvvvvvvvvvvvvvQQQXXXiiitttttttttppppppppppppXXX      ",
"vvvvvvvvvvvvvvvvvv&&&vvvvvvvvvvvvvvvvvvvvvvvvvvvvvvvvvvvvQQQXXXiiitttttttttppppppppppppXXX      ",
"vvvvvvvvvvvvvvvvvv333vvvvvvvvvvvvvvvvvvvvvvvvvvvvvvvvvvvvQQQXXXttttttttttttppppppppppppXXX      ",
"vvvvvvvvvvvvvvvvvv333vvvvvvvvvvvvvvvvvvvvvvvvvvvvvvvvvvvvQQQXXXttttttttttttppppppppppppXXX      ",
"vvvvvvvvvvvvvvvvvv333vvvvvvvvvvvvvvvvvvvvvvvvvvvvvvvvvvvvQQQXXXttttttttttttppppppppppppXXX      "
};
