/* XPM */
static char *da09afea857d4646ce97cd1f6164041aSKUrZORCAlXeJAVU[] = {
/* columns rows colors chars-per-pixel */
"96 96 23 1 ",
"  c None",
". c #55321C",
"X c #55341E",
"o c #56341E",
"O c #56341F",
"+ c #56351F",
"@ c #573521",
"# c #573722",
"$ c #573723",
"% c #583622",
"& c #583724",
"* c #583824",
"= c #654935",
"- c #6B6256",
"; c #79766B",
": c #868579",
"> c #8F8E85",
", c #908E85",
"< c #908E86",
"1 c #908F86",
"2 c #918F86",
"3 c #918F87",
"4 c #94928B",
/* pixels */
"&&&444:::::::::::::::OOO                                                                        ",
"&&&444:::::::::::::::OOO                                                                        ",
"&&&444:::::::::::::::OOO                                                                        ",
"&&&444:::::::::::::::OOO                                                                        ",
"&&&444:::::::::::::::OOO                                                                        ",
"&&&444:::::::::::::::OOO                                                                        ",
"&&&444:::::::::::::::OOO                                                                        ",
"&&&444:::::::::::::::OOO                                                                        ",
"&&&444:::::::::::::::OOO                                                                        ",
"&&&444:::::::::::::::OOO                                                                        ",
"&&&444:::::::::::::::OOO                                                                        ",
"&&&444:::::::::::::::OOO                                                                        ",
"&&&444:::::::::::::::OOO                                                                        ",
"&&&444:::::::::::::::OOO                                                                        ",
"&&&444:::::::::::::::OOO                                                                        ",
"&&&444:::::::::::::::OOO                                                                        ",
"&&&444:::::::::::::::OOO                                                                        ",
"&&&444:::::::::::::::OOO                                                                        ",
"&&&444:::::::::::::::OOO                                                                        ",
"&&&444:::::::::::::::OOO                                                                        ",
"&&&444:::::::::::::::OOO                                                                        ",
"&&&444:::::::::::::::OOO                                                                        ",
"&&&444:::::::::::::::OOO                                                                        ",
"&&&444:::::::::::::::OOO                                                                        ",
"&&&;;;333::::::::::::OOO                                                                        ",
"&&&;;;333::::::::::::OOO                                                                        ",
"&&&;;;333::::::::::::OOO                                                                        ",
"&&&;;;;;;>>>>>>::::::OOO                                                                        ",
"&&&;;;;;;>>>>>>::::::OOO                                                                        ",
"&&&;;;;;;>>>>>>::::::OOO                                                                        ",
"&&&;;;--------->>>>>>OOO                                                                        ",
"&&&;;;--------->>>>>>OOO                                                                        ",
"&&&;;;--------->>>>>>OOO                                                                        ",
"&&&------OOOOOO======OOO                                                                        ",
"&&&------OOOOOO======OOO                                                                        ",
"&&&------OOOOOO======OOO                                                                        ",
"$$$OOOOOO::::::::::::OOO                                                                        ",
"$$$OOOOOO::::::::::::OOO                                                                        ",
"$$$OOOOOO::::::::::::OOO                                                                        ",
"&&&444:::::::::::::::OOO                                                                        ",
"&&&444:::::::::::::::OOO                                                                        ",
"&&&444:::::::::::::::OOO                                                                        ",
"&&&444:::::::::::::::OOO                                                                        ",
"&&&444:::::::::::::::OOO                                                                        ",
"&&&444:::::::::::::::OOO                                                                        ",
"&&&444:::::::::::::::OOO                                                                        ",
"&&&444:::::::::::::::OOO                                                                        ",
"&&&444:::::::::::::::OOO                                                                        ",
"&&&444:::::::::::::::OOO                                                                        ",
"&&&444:::::::::::::::OOO                                                                        ",
"&&&444:::::::::::::::OOO                                                                        ",
"&&&444:::::::::::::::OOO                                                                        ",
"&&&444:::::::::::::::OOO                                                                        ",
"&&&444:::::::::::::::OOO                                                                        ",
"&&&444:::::::::::::::OOO                                                                        ",
"&&&444:::::::::::::::OOO                                                                        ",
"&&&444:::::::::::::::OOO                                                                        ",
"&&&444:::::::::::::::OOO                                                                        ",
"&&&444:::::::::::::::OOO                                                                        ",
"&&&444:::::::::::::::OOO                                                                        ",
"&&&444:::::::::::::::OOO                                                                        ",
"&&&444:::::::::::::::OOO                                                                        ",
"&&&444:::::::::::::::OOO                                                                        ",
"&&&444:::::::::::::::OOO                                                                        ",
"&&&444:::::::::::::::OOO                                                                        ",
"&&&444:::::::::::::::OOO                                                                        ",
"&&&444:::::::::::::::OOO                                                                        ",
"&&&444:::::::::::::::OOO                                                                        ",
"&&&444:::::::::::::::OOO                                                                        ",
"&&&444:::::::::::::::OOO                                                                        ",
"&&&444:::::::::::::::OOO                                                                        ",
"&&&444:::::::::::::::OOO                                                                        ",
"&&&444:::::::::::::::OOO                                                                        ",
"&&&444:::::::::::::::OOO                                                                        ",
"&&&444:::::::::::::::OOO                                                                        ",
"&&&444:::::::::::::::OOO                                                                        ",
"&&&444:::::::::::::::OOO                                                                        ",
"&&&444:::::::::::::::OOO                                                                        ",
"&&&444333333333333333OOO                                                                        ",
"&&&444333333333333333OOO                                                                        ",
"%&&444333333333333333OOO                                                                        ",
"%&&$$$============OOOOOO                                                                        ",
"%%&$$$============OOOOOO                                                                        ",
"&&&$$$============OOOOOO                                                                        ",
"***444:::::::::::::::OOO                                                                        ",
"***444:::::::::::::::OOO                                                                        ",
"***444:::::::::::::::OOO                                                                        ",
"***444:::::::::::::::$$$                                                                        ",
"***444:::::::::::::::$$$                                                                        ",
"***444:::::::::::::::$$$                                                                        ",
"%%%444:::::::::::::::...                                                                        ",
"%%%444:::::::::::::::...                                                                        ",
"%%%444:::::::::::::::...                                                                        ",
"OOO444:::::::::::::::OOO                                                                        ",
"OOO444:::::::::::::::OOO                                                                        ",
"OOO444:::::::::::::::OOO                                                                        "
};
