/* XPM */
static char *_7169caecb50466ba0bbf0a6e0eca096auHI8T1cbbk0e6Ac[] = {
/* columns rows colors chars-per-pixel */
"96 96 50 1 ",
"  c #4F2913",
". c #4B2E1E",
"X c #4C2D1D",
"o c #502B15",
"O c #502C17",
"+ c #502E19",
"@ c #4F311E",
"# c #51301C",
"$ c #4D2F20",
"% c #4E3122",
"& c #4F3324",
"* c #4F3625",
"= c #4F382C",
"- c #523421",
"; c #533624",
": c #5A3B27",
"> c #503729",
", c #563C2C",
"< c #5A3F2C",
"1 c #533E33",
"2 c #533F34",
"3 c #594537",
"4 c #54453C",
"5 c #5A4739",
"6 c #5A4F45",
"7 c #5B4F49",
"8 c #5B5045",
"9 c #5C5247",
"0 c #5B5049",
"q c #5D534B",
"w c #5E5449",
"e c #5E554C",
"r c #665444",
"t c #61574F",
"y c #635B53",
"u c #635C54",
"i c #665F57",
"p c #666157",
"a c #676158",
"s c #69635B",
"d c #69645B",
"f c #6A645C",
"g c #6B665D",
"h c #6C675E",
"j c #6C685F",
"k c #6E6860",
"l c #6E6A60",
"z c #706B62",
"x c #868579",
"c c #94928B",
/* pixels */
":::::::::::::::::::::::::::::::::::::::::::::rrr::::::::::::::::::::::::::::::::::::::::::::::::",
":::::::::::::::::::::::::::::::::::::::::::::rrr::::::::::::::::::::::::::::::::::::::::::::::::",
":::::::::::::::::::::::::::::::::::::::::::::rrr::::::::::::::::::::::::::::::::::::::::::::::::",
"xxxxxxxxxxxxxxxxxxxxxxxxxxxxxxxxxxxxxxxxxxxxx   xxxxxxxxxxxxxxxxxxxxxxxxxxxxxxxxxxxxxxxxxxxxxxxx",
"xxxxxxxxxxxxxxxxxxxxxxxxxxxxxxxxxxxxxxxxxxxxx   xxxxxxxxxxxxxxxxxxxxxxxxxxxxxxxxxxxxxxxxxxxxxxxx",
"xxxxxxxxxxxxxxxxxxxxxxxxxxxxxxxxxxxxxxxxxxxxx   xxxxxxxxxxxxxxxxxxxxxxxxxxxxxxxxxxxxxxxxxxxxxxxx",
"xxxxxxxxxxxxxxxxxxxxxxxxxxxxxxxxxxxxxxxxxxxxx   xxxxxxxxxxxxxxxxxxxxxxxxxxxxxxxxxxxxxxxxxxxxxxxx",
"xxxxxxxxxxxxxxxxxxxxxxxxxxxxxxxxxxxxxxxxxxxxx   xxxxxxxxxxxxxxxxxxxxxxxxxxxxxxxxxxxxxxxxxxxxxxxx",
"xxxxxxxxxxxxxxxxxxxxxxxxxxxxxxxxxxxxxxxxxxxxx   xxxxxxxxxxxxxxxxxxxxxxxxxxxxxxxxxxxxxxxxxxxxxxxx",
"xxxxxxxxxxxxxxxxxxxxxxxxxxxxxxxxxxxxxxxxxxxxxrrrxxxxxxxxxxxxxxxxxxxxxxxxxxxxxxxxxxxxxxxxxxxxxxxx",
"xxxxxxxxxxxxxxxxxxxxxxxxxxxxxxxxxxxxxxxxxxxxxrrrxxxxxxxxxxxxxxxxxxxxxxxxxxxxxxxxxxxxxxxxxxxxxxxx",
"xxxxxxxxxxxxxxxxxxxxxxxxxxxxxxxxxxxxxxxxxxxxxrrrxxxxxxxxxxxxxxxxxxxxxxxxxxxxxxxxxxxxxxxxxxxxxxxx",
"cccccccccccccccccccccccccccccccccccccccccccccrrrcccccccccccccccccccccccccccccccccccccccccccccccc",
"cccccccccccccccccccccccccccccccccccccccccccccrrrcccccccccccccccccccccccccccccccccccccccccccccccc",
"cccccccccccccccccccccccccccccccccccccccccccccrrrcccccccccccccccccccccccccccccccccccccccccccccccc",
"tttzzzzzzzzzllllllllljjjjjjjjjjjjjjjjjjjjjjjj<<<zzzzzzzzzzzzzzzzzzzzzzzzlllllllllllllllllljjjjjj",
"tttzzzzzzzzzllllllllljjjjjjjjjjjjjjjjjjjjjjjj<<<zzzzzzzzzzzzzzzzzzzzzzzzlllllllllllllllllljjjjjj",
"tttzzzzzzzzzllllllllljjjjjjjjjjjjjjjjjjjjjjjj<<<zzzzzzzzzzzzzzzzzzzzzzzzlllllllllllllllllljjjjjj",
"tttllllllllllllllljjjjjjjjjjjjjjjjjjjjjjjjjjj<<<lllllllzllllllllllllllllllllllllllllllljjjjjjjjj",
"tttllllllllllllllljjjjjjjjjjjjjjjjjjjjjjjjjjj<<<llllllllllllllllllllllllllllllllllllllljjjjjjjjj",
"tttllllllllllllllljjjjjjjjjjjjjjjjjjjjjjjjjjj<<<llllllzlllllllllllllllllllllllllllllllljjjjjjjjj",
"tttlllllllllllljjjjjjjjjjjjjjjjjjjjjjjjjjjjjj<<<llllllllllllllllllllllllllllllllljjjjjjjjjjjjjjj",
"tttlllllllllllljjjjjjjjjjjjjjjjjjjjjjjjjjjjjj<<<llllllllllllllllllllllllllllllllljjjjjjjjjjjjjjj",
"tttlllllllllllljjjjjjjjjjjjjjjjjjjjjjjjjjjjjj<<<llllllllllllllllllllllllllllllllljjjjjjjjjjjjjjj",
"ttttttllllllllljjjjjjjjjjjjjjjjjjjjjjjjjjjjjj<<<llllllllllllllllllllllllllllllllljjjjjjjjjjjjjjj",
"ttttttllllllllljjjjjjjjjjjjjjjjjjjjjjjjjjjjjj<<<llllllllllllllllllllllllllllllllljjjjjjjjjjjjjjj",
"ttttttllllllllljjjjjjjjjjjjjjjjjjjjjjjjjjjjjj<<<llllllllllllllllllllllllllllllllljjjjjjjjjjjjjjj",
"ttttttlllllljjjjjjhhhhhhhhhhhhhhhhhhhhhhhhhhh<<<lllllllllllllllllllllllljjjjjjjjjjjjjjjhhhhhhhhh",
"ttttttlllllljjjjjjhhhhhhhhhhhhhhhhhhhhhhhhhhh<<<lllllllllllllllllllllllljjjjjjjjjjjjjjjhhhhhhhhh",
"ttttttlllllljjjjjjhhhhhhhhhhhhhhhhhhhhhhhhhhh<<<lllllllllllllllllllllllljjjjjjjjjjjjjjjhhhhhhhhh",
"tttttthhhhhhjjjhhhhhhgggggggggggggggggggggggg<<<jjjjjjjjjhhhhhhhhhhhhhhhjjjjjjjjjhhhhhhhhhgggggg",
"tttttthhhhhhjjjhhhhhhgggggggggggggggggggggggg<<<jjjjjjjjjhhhhhhhhhhhhhhhjjjjjjjjjhhhhhhhhhgggggg",
"tttttthhhhhhjjjhhhhhhgggggggggggggggggggggggg<<<jjjjhhhhjhhhhhhhhhhhhhhhjjjjjjjjjhhhhhhhhhgggggg",
"eeeeeehhhgggggggggggggggggggggggggggggggggggg<<<hhhhhhhhhhhhhhhhhhgggggggggggggggggggggggggggggg",
"eeeeeehhhgggggggggggggggggggggggggggggggggggg<<<hhhhhhhhhhhhhhhhhhgggggggggggggggggggggggggggggg",
"eeeeeehhhgggggggggggggggggggggggggggggggggggg<<<hhhhhhhhhhhhhhhhhhgggggggggggggggggggggggggggggg",
"eeeeeeeeeggggggggggggddgggggggggggggggggggggg<<<gggggggggggggggggggggggggggggggggggggggggggggggg",
"eeeeeeeeegggggggggggggdgggggggggggggggggggggg<<<gggggggggggggggggggggggggggggggggggggggggggggggg",
"eeeeeeeeegggggggggggggggggggggggggggggggggggg<<<gggggggggggggggggggggggggggggggggggggggggggggggg",
"eeeeeeeeeddddddssssssdddgggdddddddddddddddddd<<<dddddddddddddddddddddddddddddddddddddddddddddddd",
"eeeeeeeeeddddddssssssdddgggdddddddddddddddddd<<<dddddddddddddddddddddddddddddddddddddddddddddddd",
"eeeeeeeeeddddddssssssdddgggdddddddddddddddddd<<<ddddddddssdddddddddddddddddddddddddddddddddddddd",
"qqqwwwwwwssssssssssssssssssssssssssssssssssss<<<ssssssssssssssssssssssssssssssssssssssssssssssss",
"qqqwwwwwwssssssssssssssssssssssssssssssssssss<<<ssssssssssssssssssssssssssssssssssssssssssssssss",
"qqqwwwwwwssssssssssssssssssssssssssssssssssss<<<ssssssssssssssssssssssssssssggssssssssssssssssss",
"qqqqqqqqqqqqppppppiiippppppaaaaaaaaasssaaasss<<<aaaaaaaaaaaaaaaaaaaaaaaaaaaaaaaaaaaaaaaaaaaaaaaa",
"qqqqqqqqqqqqppppppiiippppppaaaaaaaaasssaaasss<<<aaaaaaaaaaaaaaaaaaaaaaaaaaaaaaaaaaaaaaaaaaaaaaaa",
"qqqqqqqqqqqqppppppiiippppppaaaaaaaaasssaaasss<<<aaaaaaaaaaaaaaaaaaaaaaaaaaaaaaaaaaaaaaaaaaaaaaaa",
"qqqqqqqqqqqqiiiiiiiiiiiiiiiiiiaaaaaaaaaaaaaaa   aaaaaaaaaaaaaaaaaaaaaaaaaaaaaaaaaaaaaaaaaaaaaaaa",
"qqqqqqqqqqqqiiiiiiiiiiiiiiiiiiaaaaaaaaaaaaaaa   aaaaaaaaaaaaaaaaaaaaaaaaaaaaaaaaaaaaaaaaaaaaaaaa",
"qqqqqqqqqqqqiiiiiiiiiiiiiiiiiiaaaaaaaaaaaaaaa   aaaaaaaaaaaaaaaaaaaaaaaaaaaaaaaaaaaaaaaaaaaaaaaa",
"qqqqqqqqqqqqiiiiiiiiuuuuiiiiiiiiiaaaaaaaaaaaa   aaaaaaaaaaaaaaaaaaaaaaaaaaaaaaaaaaaaaaaaaaaaaaaa",
"qqqqqqqqqqqqiiiiiiiiiiiiiiiiiiiiiaaaaaaaaaaaa   aaaaaaaaaaaaaaaaaaaaaaaaaaaaaaaaaaaaaaaaaaaaaaaa",
"qqqqqqqqqqqqiiuuiiiiiiiiiiiiiiiiiaaaaaaaaaaaa   aaaaaaaaaaaaaaaaaaaaaaaaaaaaaaaaaaaaaaaaaaaaaaaa",
"XXX$$$%%%%%%%%%-;;;;;------######+++OOOooo                                                      ",
"XXX$$$%%%%%%%%%-;;;;;------######+++OOOooo                                                      ",
"XXX$$$%%%%%%&&&;;;;;;------######+++OOOooo                                                      ",
"666666888888999999999999999999999999999999999999999999999999www999999@@@999999999999999999999999",
"666666888888999999999999999999999999999999999999999999999999www999999@@@999999999999999999999999",
"666666888888999999999999999999999999999999999999999999999999www999999@@@999999999999999999999999",
"888888888888999999999999999999999999999999999999999999999999999999999@@@qqq999999999999999999999",
"888888888888999999999999999999999999999999999999999999999999999999999@@@qqq999999999999999999999",
"888888888888999999999999999999999999999999999999999999999999999999999@@@qqq999999999999999999999",
"888888888888888999999999999999999999999999999999999999999999999www999***qqq9999999999999999999qq",
"8888888880008889qqq99999999999999999999999999999999999999999999www999***qqq999999999999999999999",
"8888888888008889qq999999999999999999999999999999999999999999999www999***qqq999999999999999999999",
"888888888888888999999999999999999999999999999999999999999999999www999***999999999999999999999999",
"888888888888888999999999999999999999999999999999999999999999999www999***999999999999999999999999",
"888800000888888999999999999999999999999999999999999999999999999www999***999999999999999999999999",
"888800000088888999999999999999999999999999999999999999999999999wwwwww***qqq999999999999999999999",
"888888000000888999999999999999999999999999999999999999999999999wwwwww***qqq999999999999999999999",
"888888880088888999999999999999999999999999999999999999999999999wwwwww***qqq999999999999999999999",
"666666888888888999999999999999999999999999999999999999999999999wwwwww***qqq999999999999999999999",
"666666888888888999999999999999999999999999999999999999999999999wwwwww***qqq999999999999999999999",
"6666668888888889999999999999999999999999999999999999999q999999qwwwwww***qqq99999999999qq99999999",
"777777000000000000yyyuuuiiiiiiiiiaaaaaaaaaaaaaaaaaaaaaaaaaaaaaaaaaaaa333aaaaaaaaaaaaaaaaaaaaaaaa",
"777777000000000000yyyyuuiiiiiiiiiaaaaaaaaaaaaaaaaaaaaaaaaaaaaaaaaaaaa533aaaaaaaaaaaaaaaaaaaaaaaa",
"777777000000000000yyyyuuiiiiiiiiiaaaaaaaaaaaaaaaaaaaaaaaaaaaaaaaaaaaa533aaaaaaaaaaaaaaaaaaaaaaaa",
"777777777777000000iiyuuiiiiiiiaaaaaaaaaaaaaaaassaaaaaaaaaaaaaaaaaaaaa555aaaaaaaaaaaaaaaaaaaaaaaa",
"777777777777000000iiyuuiiiiiiiaaaaaaaaaaaaaaasssaaaaaaaaaaaaaaaaaaaaa555aaaaaaaaaaaaaaaaaaaaaaaa",
"777777777777000000iiiiiiiiiiiiaaaaaassaaasssssssssssaaaaaaaaaaaaaaaaa555sssaaaaaaaaassssssaaasss",
"111112222222222>>>,,,,,,333333999999999999999999999999999999333333333333333999999999999999999999",
"111111222222222>>>,,,,,,333333999999999999999999999999999999333333333333333999999999999999999999",
"111111222222222>>>,,,,,,333333999999999999999999999999999999333333333333333999999999999999999999",
"eeewwwwqwwwwwwwwww&&&gggggghhhhhhjjjjjjlhhjjjjjjhhhhjjjjjjjjjjjjjjjjjjjjjjjjjjjjjjjjjjjjjjjjhhhh",
"eeewwwwwwwwwwwwwww&&&gggggghhhhhhjjjjjjlhhjjjjjjhhjhjjjjjjjjjjjjjjjjjjjjjjjjjjjjjjjjjjjjjjjjhhjj",
"eeewwweeeewwwwwwww&&&gggggghhhhhhjjjjjllhjjjjjjjjjjjjjjjjjjjljlljjjjjjjjjjjjljlljjjjjjjjjjjjjjjj",
"qqqqqqqqqqqqqqqqqq...aaaaaaaaaaaaaaaaaaassssaaaassssaaaassssaaaaaaaaaaaaassaaaaassssaaaaaaaassss",
"qqqqqqqqqqqqqqqqqq...aaaaaaaaaaaaaaaaaaaaaaaaaaaaaaaaaaaaaaaaaaaaaaaaaaaaaaaaaaaaaaaaaaaaaaaaaaa",
"qqqqqqqqqqqqqqqqqq...aaaaaaaaaaaaaaaaaaaaaaaaaaaaaaaaaaaaaaaaaaaaaaaaaaaaaaaaaaaaaaaaaaaaaaaaaaa",
"qqqqqqqqqqqqqqqqqq===aaaaaaaaaaaaaaaaaaaaaaaaaaaaaaaaaaaaaaaaaaaaaaaaaaaaaaaaaaaaaaaaaaaaaaaaaaa",
"qqqqqqqqqqqqqqqqqq===aaaaaaaaaaaaaaaaaaaaaaaaaaaaaaaaaaaaaaaaaaaaaaaaaaaaaaaaaaaaaaaaaaaaaaaaaaa",
"qqqqqqqqqqqqqqqqqq===aaaaaaaaaaaaaaaaaaaaaaaaaaaaaaaaaaaaaaaaaaaaaaaaaaaaaaaaaaaaaaaaaaaaaaaaaaa",
"777qqqqqqqqqqqqqqq444aaaaaaaaaaaaaaaaaaaaaaaaaaaaaaaaaaaaaaaaaaaaaaaaaaaaaaaaaaaaaaaaaaaaaaaaaaa",
"777qqqqqqqqqqqqqqq444aaaaaaaaaaaaaaaaaaaaaaaaaaaaaaaaaaaaaaaaaaaaaaaaaaaaaaaaaaaaaaaaaaaaaaaaaaa",
"777qqqqqqqqqqqqqqq444aaaaaaaaaaaaaaaaaaaaaaaaaaaaaaaaaaaaaaaaaaaaaaaaaaaaaaaaaaaaaaaaaaaaaaaaaaa"
};
